<mxfile host="65bd71144e">
    <diagram id="eVHUcV3mgXNlmLgi5l71" name="Page-1">
        <mxGraphModel dx="929" dy="552" grid="0" gridSize="10" guides="0" tooltips="1" connect="0" arrows="0" fold="1" page="1" pageScale="1" pageWidth="850" pageHeight="1100" math="0" shadow="0">
            <root>
                <mxCell id="0"/>
                <mxCell id="1" parent="0"/>
                <mxCell id="19" value="1.0" style="swimlane;whiteSpace=wrap;html=1;movable=1;resizable=1;rotatable=1;deletable=1;editable=1;connectable=1;" vertex="1" parent="1">
                    <mxGeometry x="281" y="322" width="123.5" height="100" as="geometry"/>
                </mxCell>
                <mxCell id="20" value="Authentication" style="text;html=1;align=center;verticalAlign=middle;resizable=1;points=[];autosize=1;strokeColor=none;fillColor=none;movable=1;rotatable=1;deletable=1;editable=1;connectable=1;" vertex="1" parent="19">
                    <mxGeometry x="11.75" y="35" width="100" height="30" as="geometry"/>
                </mxCell>
                <mxCell id="21" value="1.0" style="swimlane;whiteSpace=wrap;html=1;movable=1;resizable=1;rotatable=1;deletable=1;editable=1;connectable=1;" vertex="1" parent="1">
                    <mxGeometry x="430" y="260" width="145" height="95" as="geometry"/>
                </mxCell>
                <mxCell id="22" value="Breed Detection &lt;br&gt;System" style="text;html=1;align=center;verticalAlign=middle;resizable=1;points=[];autosize=1;strokeColor=none;fillColor=none;movable=1;rotatable=1;deletable=1;editable=1;connectable=1;" vertex="1" parent="21">
                    <mxGeometry x="18" y="39" width="110" height="40" as="geometry"/>
                </mxCell>
                <mxCell id="23" value="1.0" style="swimlane;whiteSpace=wrap;html=1;movable=1;resizable=1;rotatable=1;deletable=1;editable=1;connectable=1;" vertex="1" parent="1">
                    <mxGeometry x="555" y="770" width="145" height="130" as="geometry"/>
                </mxCell>
                <mxCell id="24" value="Adoption System" style="text;html=1;align=center;verticalAlign=middle;resizable=1;points=[];autosize=1;strokeColor=none;fillColor=none;movable=1;rotatable=1;deletable=1;editable=1;connectable=1;" vertex="1" parent="23">
                    <mxGeometry x="18" y="60" width="110" height="30" as="geometry"/>
                </mxCell>
                <mxCell id="25" value="1.0" style="swimlane;whiteSpace=wrap;html=1;movable=1;resizable=1;rotatable=1;deletable=1;editable=1;connectable=1;" vertex="1" parent="1">
                    <mxGeometry x="249.75" y="20" width="145.25" height="101" as="geometry"/>
                </mxCell>
                <mxCell id="26" value="Training System" style="text;html=1;align=center;verticalAlign=middle;resizable=1;points=[];autosize=1;strokeColor=none;fillColor=none;movable=1;rotatable=1;deletable=1;editable=1;connectable=1;" vertex="1" parent="25">
                    <mxGeometry x="16.25" y="47" width="110" height="30" as="geometry"/>
                </mxCell>
                <mxCell id="27" value="1.0" style="swimlane;whiteSpace=wrap;html=1;movable=1;resizable=1;rotatable=1;deletable=1;editable=1;connectable=1;" vertex="1" parent="1">
                    <mxGeometry x="118.25" y="485" width="153" height="130" as="geometry"/>
                </mxCell>
                <mxCell id="28" value="Veterinary &lt;br&gt;Recommendation System" style="text;html=1;align=center;verticalAlign=middle;resizable=1;points=[];autosize=1;strokeColor=none;fillColor=none;movable=1;rotatable=1;deletable=1;editable=1;connectable=1;" vertex="1" parent="27">
                    <mxGeometry x="-7" y="55" width="160" height="40" as="geometry"/>
                </mxCell>
                <mxCell id="29" value="1.0" style="swimlane;whiteSpace=wrap;html=1;movable=1;resizable=1;rotatable=1;deletable=1;editable=1;connectable=1;" vertex="1" parent="1">
                    <mxGeometry x="118.25" y="830" width="153" height="130" as="geometry"/>
                </mxCell>
                <mxCell id="30" value="Community Management &lt;br&gt;System" style="text;html=1;align=center;verticalAlign=middle;resizable=1;points=[];autosize=1;strokeColor=none;fillColor=none;movable=1;rotatable=1;deletable=1;editable=1;connectable=1;" vertex="1" parent="29">
                    <mxGeometry x="-7" y="55" width="160" height="40" as="geometry"/>
                </mxCell>
                <mxCell id="31" value="1.0" style="swimlane;whiteSpace=wrap;html=1;movable=1;resizable=1;rotatable=1;deletable=1;editable=1;connectable=1;" vertex="1" parent="1">
                    <mxGeometry x="432.5" y="90" width="137.5" height="97" as="geometry"/>
                </mxCell>
                <mxCell id="32" value="Disease Symptoms &lt;br&gt;Analyzing System" style="text;html=1;align=center;verticalAlign=middle;resizable=1;points=[];autosize=1;strokeColor=none;fillColor=none;movable=1;rotatable=1;deletable=1;editable=1;connectable=1;" vertex="1" parent="31">
                    <mxGeometry x="3.5" y="38" width="130" height="40" as="geometry"/>
                </mxCell>
                <mxCell id="33" value="1.0" style="swimlane;whiteSpace=wrap;html=1;movable=1;resizable=1;rotatable=1;deletable=1;editable=1;connectable=1;" vertex="1" parent="1">
                    <mxGeometry x="245.75" y="180" width="153" height="97" as="geometry">
                        <mxRectangle x="117" y="220" width="60" height="30" as="alternateBounds"/>
                    </mxGeometry>
                </mxCell>
                <mxCell id="34" value="Schedule Management &lt;br&gt;System" style="text;html=1;align=center;verticalAlign=middle;resizable=1;points=[];autosize=1;strokeColor=none;fillColor=none;movable=1;rotatable=1;deletable=1;editable=1;connectable=1;" vertex="1" parent="33">
                    <mxGeometry x="-2" y="40" width="150" height="40" as="geometry"/>
                </mxCell>
                <mxCell id="91" value="Login &lt;br&gt;Details" style="edgeStyle=none;html=1;entryX=0;entryY=0.75;entryDx=0;entryDy=0;" edge="1" parent="1" source="35" target="19">
                    <mxGeometry relative="1" as="geometry">
                        <Array as="points">
                            <mxPoint x="124" y="404"/>
                        </Array>
                    </mxGeometry>
                </mxCell>
                <mxCell id="92" value="Schedules&amp;nbsp;&lt;br&gt;to implement" style="edgeStyle=none;html=1;entryX=0.013;entryY=1.238;entryDx=0;entryDy=0;entryPerimeter=0;" edge="1" parent="1" source="35" target="34">
                    <mxGeometry relative="1" as="geometry">
                        <Array as="points">
                            <mxPoint x="194" y="272"/>
                        </Array>
                    </mxGeometry>
                </mxCell>
                <mxCell id="93" value="Required&lt;br&gt;Traning" style="edgeStyle=none;html=1;entryX=0;entryY=0.5;entryDx=0;entryDy=0;" edge="1" parent="1" source="35" target="25">
                    <mxGeometry relative="1" as="geometry">
                        <Array as="points">
                            <mxPoint x="160" y="85"/>
                        </Array>
                    </mxGeometry>
                </mxCell>
                <mxCell id="95" value="Observed Symptoms" style="edgeStyle=none;html=1;entryX=-0.011;entryY=0.883;entryDx=0;entryDy=0;entryPerimeter=0;" edge="1" parent="1" source="35" target="32">
                    <mxGeometry relative="1" as="geometry">
                        <mxPoint x="426" y="169" as="targetPoint"/>
                        <Array as="points">
                            <mxPoint x="220" y="166"/>
                        </Array>
                    </mxGeometry>
                </mxCell>
                <mxCell id="96" value="Captured&amp;nbsp;&lt;br&gt;Image" style="edgeStyle=none;html=1;" edge="1" parent="1" source="35">
                    <mxGeometry x="0.6663" y="-4" relative="1" as="geometry">
                        <mxPoint x="430" y="296" as="targetPoint"/>
                        <Array as="points">
                            <mxPoint x="138" y="294"/>
                        </Array>
                        <mxPoint x="-1" as="offset"/>
                    </mxGeometry>
                </mxCell>
                <mxCell id="113" style="edgeStyle=none;html=1;entryX=0;entryY=0.25;entryDx=0;entryDy=0;exitX=0;exitY=1;exitDx=0;exitDy=0;" edge="1" parent="1" source="35" target="27">
                    <mxGeometry relative="1" as="geometry">
                        <Array as="points">
                            <mxPoint x="80" y="518"/>
                        </Array>
                    </mxGeometry>
                </mxCell>
                <mxCell id="114" style="edgeStyle=none;html=1;entryX=0;entryY=0.5;entryDx=0;entryDy=0;exitX=0;exitY=1;exitDx=0;exitDy=0;" edge="1" parent="1" source="35" target="107">
                    <mxGeometry relative="1" as="geometry">
                        <Array as="points">
                            <mxPoint x="80" y="715"/>
                        </Array>
                    </mxGeometry>
                </mxCell>
                <mxCell id="35" value="Pet&lt;br&gt;Owner" style="whiteSpace=wrap;html=1;aspect=fixed;" vertex="1" parent="1">
                    <mxGeometry x="80" y="170" width="80" height="80" as="geometry"/>
                </mxCell>
                <mxCell id="126" value="Login&amp;nbsp;&lt;br&gt;Details" style="edgeStyle=none;html=1;entryX=0.25;entryY=1;entryDx=0;entryDy=0;" edge="1" parent="1" source="36" target="19">
                    <mxGeometry relative="1" as="geometry"/>
                </mxCell>
                <mxCell id="136" value="Instructions" style="edgeStyle=none;html=1;exitX=0;exitY=0.5;exitDx=0;exitDy=0;entryX=1.006;entryY=1.131;entryDx=0;entryDy=0;entryPerimeter=0;" edge="1" parent="1" source="36" target="28">
                    <mxGeometry x="-0.0365" y="20" relative="1" as="geometry">
                        <mxPoint as="offset"/>
                    </mxGeometry>
                </mxCell>
                <mxCell id="36" value="Veterinarian" style="whiteSpace=wrap;html=1;aspect=fixed;" vertex="1" parent="1">
                    <mxGeometry x="330" y="520" width="80" height="80" as="geometry"/>
                </mxCell>
                <mxCell id="125" style="edgeStyle=none;html=1;entryX=1;entryY=0.75;entryDx=0;entryDy=0;" edge="1" parent="1" source="38" target="19">
                    <mxGeometry relative="1" as="geometry">
                        <mxPoint x="400" y="460.0000000000001" as="targetPoint"/>
                        <Array as="points">
                            <mxPoint x="540" y="700"/>
                            <mxPoint x="490" y="480"/>
                        </Array>
                    </mxGeometry>
                </mxCell>
                <mxCell id="137" value="Update &lt;br&gt;Products" style="edgeStyle=none;html=1;entryX=1;entryY=1;entryDx=0;entryDy=0;" edge="1" parent="1" source="38" target="107">
                    <mxGeometry relative="1" as="geometry">
                        <Array as="points">
                            <mxPoint x="520" y="780"/>
                        </Array>
                    </mxGeometry>
                </mxCell>
                <mxCell id="38" value="Shop &lt;br&gt;Owners" style="whiteSpace=wrap;html=1;aspect=fixed;" vertex="1" parent="1">
                    <mxGeometry x="520" y="646" width="80" height="80" as="geometry"/>
                </mxCell>
                <mxCell id="124" value="Login &lt;br&gt;Details" style="edgeStyle=none;html=1;entryX=1;entryY=0.75;entryDx=0;entryDy=0;" edge="1" parent="1" source="39" target="19">
                    <mxGeometry x="0.7007" y="9" relative="1" as="geometry">
                        <mxPoint as="offset"/>
                    </mxGeometry>
                </mxCell>
                <mxCell id="131" value="Admin&amp;nbsp;&lt;br&gt;Data/Reports" style="edgeStyle=none;html=1;entryX=0.447;entryY=1.36;entryDx=0;entryDy=0;entryPerimeter=0;" edge="1" parent="1" source="39" target="53">
                    <mxGeometry relative="1" as="geometry">
                        <Array as="points">
                            <mxPoint x="758" y="470"/>
                        </Array>
                    </mxGeometry>
                </mxCell>
                <mxCell id="39" value="Admin" style="whiteSpace=wrap;html=1;aspect=fixed;" vertex="1" parent="1">
                    <mxGeometry x="610" y="430" width="80" height="80" as="geometry"/>
                </mxCell>
                <mxCell id="47" value="" style="group" vertex="1" connectable="0" parent="1">
                    <mxGeometry x="627" y="203" width="110" height="50" as="geometry"/>
                </mxCell>
                <mxCell id="41" value="" style="endArrow=none;html=1;" edge="1" parent="47">
                    <mxGeometry width="50" height="50" relative="1" as="geometry">
                        <mxPoint as="sourcePoint"/>
                        <mxPoint x="110" as="targetPoint"/>
                    </mxGeometry>
                </mxCell>
                <mxCell id="42" value="" style="endArrow=none;html=1;" edge="1" parent="47">
                    <mxGeometry width="50" height="50" relative="1" as="geometry">
                        <mxPoint y="50" as="sourcePoint"/>
                        <mxPoint x="110" y="50" as="targetPoint"/>
                    </mxGeometry>
                </mxCell>
                <mxCell id="43" value="" style="endArrow=none;html=1;" edge="1" parent="47">
                    <mxGeometry width="50" height="50" relative="1" as="geometry">
                        <mxPoint x="1.5" y="50" as="sourcePoint"/>
                        <mxPoint x="1.5" as="targetPoint"/>
                    </mxGeometry>
                </mxCell>
                <mxCell id="44" value="" style="endArrow=none;html=1;" edge="1" parent="47">
                    <mxGeometry width="50" height="50" relative="1" as="geometry">
                        <mxPoint x="21.5" y="50" as="sourcePoint"/>
                        <mxPoint x="21.5" as="targetPoint"/>
                    </mxGeometry>
                </mxCell>
                <mxCell id="45" value="User db" style="text;html=1;align=center;verticalAlign=middle;resizable=0;points=[];autosize=1;strokeColor=none;fillColor=none;" vertex="1" parent="47">
                    <mxGeometry x="26.5" y="10" width="70" height="30" as="geometry"/>
                </mxCell>
                <mxCell id="48" value="" style="group" vertex="1" connectable="0" parent="1">
                    <mxGeometry x="700" y="340" width="110" height="50" as="geometry"/>
                </mxCell>
                <mxCell id="49" value="" style="endArrow=none;html=1;" edge="1" parent="48">
                    <mxGeometry width="50" height="50" relative="1" as="geometry">
                        <mxPoint as="sourcePoint"/>
                        <mxPoint x="110" as="targetPoint"/>
                    </mxGeometry>
                </mxCell>
                <mxCell id="50" value="" style="endArrow=none;html=1;" edge="1" parent="48">
                    <mxGeometry width="50" height="50" relative="1" as="geometry">
                        <mxPoint y="50" as="sourcePoint"/>
                        <mxPoint x="110" y="50" as="targetPoint"/>
                    </mxGeometry>
                </mxCell>
                <mxCell id="51" value="" style="endArrow=none;html=1;" edge="1" parent="48">
                    <mxGeometry width="50" height="50" relative="1" as="geometry">
                        <mxPoint x="1.5" y="50" as="sourcePoint"/>
                        <mxPoint x="1.5" as="targetPoint"/>
                    </mxGeometry>
                </mxCell>
                <mxCell id="52" value="" style="endArrow=none;html=1;" edge="1" parent="48">
                    <mxGeometry width="50" height="50" relative="1" as="geometry">
                        <mxPoint x="21.5" y="50" as="sourcePoint"/>
                        <mxPoint x="21.5" as="targetPoint"/>
                    </mxGeometry>
                </mxCell>
                <mxCell id="53" value="Admin db" style="text;html=1;align=center;verticalAlign=middle;resizable=0;points=[];autosize=1;strokeColor=none;fillColor=none;" vertex="1" parent="48">
                    <mxGeometry x="26.5" y="10" width="70" height="30" as="geometry"/>
                </mxCell>
                <mxCell id="54" value="" style="group" vertex="1" connectable="0" parent="1">
                    <mxGeometry x="360" y="684" width="110" height="50" as="geometry"/>
                </mxCell>
                <mxCell id="55" value="" style="endArrow=none;html=1;" edge="1" parent="54">
                    <mxGeometry width="50" height="50" relative="1" as="geometry">
                        <mxPoint as="sourcePoint"/>
                        <mxPoint x="110" as="targetPoint"/>
                    </mxGeometry>
                </mxCell>
                <mxCell id="56" value="" style="endArrow=none;html=1;" edge="1" parent="54">
                    <mxGeometry width="50" height="50" relative="1" as="geometry">
                        <mxPoint y="50" as="sourcePoint"/>
                        <mxPoint x="110" y="50" as="targetPoint"/>
                    </mxGeometry>
                </mxCell>
                <mxCell id="57" value="" style="endArrow=none;html=1;" edge="1" parent="54">
                    <mxGeometry width="50" height="50" relative="1" as="geometry">
                        <mxPoint x="1.5" y="50" as="sourcePoint"/>
                        <mxPoint x="1.5" as="targetPoint"/>
                    </mxGeometry>
                </mxCell>
                <mxCell id="58" value="" style="endArrow=none;html=1;" edge="1" parent="54">
                    <mxGeometry width="50" height="50" relative="1" as="geometry">
                        <mxPoint x="21.5" y="50" as="sourcePoint"/>
                        <mxPoint x="21.5" as="targetPoint"/>
                    </mxGeometry>
                </mxCell>
                <mxCell id="59" value="Shops db" style="text;html=1;align=center;verticalAlign=middle;resizable=0;points=[];autosize=1;strokeColor=none;fillColor=none;" vertex="1" parent="54">
                    <mxGeometry x="26.5" y="10" width="70" height="30" as="geometry"/>
                </mxCell>
                <mxCell id="66" value="" style="group" vertex="1" connectable="0" parent="1">
                    <mxGeometry x="360" y="615" width="110" height="50" as="geometry"/>
                </mxCell>
                <mxCell id="67" value="" style="endArrow=none;html=1;" edge="1" parent="66">
                    <mxGeometry width="50" height="50" relative="1" as="geometry">
                        <mxPoint as="sourcePoint"/>
                        <mxPoint x="110" as="targetPoint"/>
                    </mxGeometry>
                </mxCell>
                <mxCell id="68" value="" style="endArrow=none;html=1;" edge="1" parent="66">
                    <mxGeometry width="50" height="50" relative="1" as="geometry">
                        <mxPoint y="50" as="sourcePoint"/>
                        <mxPoint x="110" y="50" as="targetPoint"/>
                    </mxGeometry>
                </mxCell>
                <mxCell id="69" value="" style="endArrow=none;html=1;" edge="1" parent="66">
                    <mxGeometry width="50" height="50" relative="1" as="geometry">
                        <mxPoint x="1.5" y="50" as="sourcePoint"/>
                        <mxPoint x="1.5" as="targetPoint"/>
                    </mxGeometry>
                </mxCell>
                <mxCell id="70" value="" style="endArrow=none;html=1;" edge="1" parent="66">
                    <mxGeometry width="50" height="50" relative="1" as="geometry">
                        <mxPoint x="21.5" y="50" as="sourcePoint"/>
                        <mxPoint x="21.5" as="targetPoint"/>
                    </mxGeometry>
                </mxCell>
                <mxCell id="71" value="Vet db" style="text;html=1;align=center;verticalAlign=middle;resizable=0;points=[];autosize=1;strokeColor=none;fillColor=none;" vertex="1" parent="66">
                    <mxGeometry x="31.5" y="10" width="60" height="30" as="geometry"/>
                </mxCell>
                <mxCell id="72" value="" style="group" vertex="1" connectable="0" parent="1">
                    <mxGeometry x="730" y="780" width="110" height="50" as="geometry"/>
                </mxCell>
                <mxCell id="73" value="" style="endArrow=none;html=1;" edge="1" parent="72">
                    <mxGeometry width="50" height="50" relative="1" as="geometry">
                        <mxPoint as="sourcePoint"/>
                        <mxPoint x="110" as="targetPoint"/>
                    </mxGeometry>
                </mxCell>
                <mxCell id="74" value="" style="endArrow=none;html=1;" edge="1" parent="72">
                    <mxGeometry width="50" height="50" relative="1" as="geometry">
                        <mxPoint y="50" as="sourcePoint"/>
                        <mxPoint x="110" y="50" as="targetPoint"/>
                    </mxGeometry>
                </mxCell>
                <mxCell id="75" value="" style="endArrow=none;html=1;" edge="1" parent="72">
                    <mxGeometry width="50" height="50" relative="1" as="geometry">
                        <mxPoint x="1.5" y="50" as="sourcePoint"/>
                        <mxPoint x="1.5" as="targetPoint"/>
                    </mxGeometry>
                </mxCell>
                <mxCell id="76" value="" style="endArrow=none;html=1;" edge="1" parent="72">
                    <mxGeometry width="50" height="50" relative="1" as="geometry">
                        <mxPoint x="21.5" y="50" as="sourcePoint"/>
                        <mxPoint x="21.5" as="targetPoint"/>
                    </mxGeometry>
                </mxCell>
                <mxCell id="77" value="Adoption db" style="text;html=1;align=center;verticalAlign=middle;resizable=0;points=[];autosize=1;strokeColor=none;fillColor=none;" vertex="1" parent="72">
                    <mxGeometry x="16.5" y="10" width="90" height="30" as="geometry"/>
                </mxCell>
                <mxCell id="78" value="" style="group" vertex="1" connectable="0" parent="1">
                    <mxGeometry x="398.75" y="880" width="110" height="50" as="geometry"/>
                </mxCell>
                <mxCell id="79" value="" style="endArrow=none;html=1;" edge="1" parent="78">
                    <mxGeometry width="50" height="50" relative="1" as="geometry">
                        <mxPoint as="sourcePoint"/>
                        <mxPoint x="110" as="targetPoint"/>
                    </mxGeometry>
                </mxCell>
                <mxCell id="80" value="" style="endArrow=none;html=1;" edge="1" parent="78">
                    <mxGeometry width="50" height="50" relative="1" as="geometry">
                        <mxPoint y="50" as="sourcePoint"/>
                        <mxPoint x="110" y="50" as="targetPoint"/>
                    </mxGeometry>
                </mxCell>
                <mxCell id="81" value="" style="endArrow=none;html=1;" edge="1" parent="78">
                    <mxGeometry width="50" height="50" relative="1" as="geometry">
                        <mxPoint x="1.5" y="50" as="sourcePoint"/>
                        <mxPoint x="1.5" as="targetPoint"/>
                    </mxGeometry>
                </mxCell>
                <mxCell id="82" value="" style="endArrow=none;html=1;" edge="1" parent="78">
                    <mxGeometry width="50" height="50" relative="1" as="geometry">
                        <mxPoint x="21.5" y="50" as="sourcePoint"/>
                        <mxPoint x="21.5" as="targetPoint"/>
                    </mxGeometry>
                </mxCell>
                <mxCell id="83" value="Posts db" style="text;html=1;align=center;verticalAlign=middle;resizable=0;points=[];autosize=1;strokeColor=none;fillColor=none;" vertex="1" parent="78">
                    <mxGeometry x="26.5" y="10" width="70" height="30" as="geometry"/>
                </mxCell>
                <mxCell id="94" value="Login Details&lt;br&gt;Verificaiton" style="edgeStyle=none;html=1;entryX=1;entryY=0.5;entryDx=0;entryDy=0;" edge="1" parent="1" source="45" target="19">
                    <mxGeometry x="0.8357" y="1" relative="1" as="geometry">
                        <Array as="points">
                            <mxPoint x="640" y="410"/>
                        </Array>
                        <mxPoint as="offset"/>
                    </mxGeometry>
                </mxCell>
                <mxCell id="101" value="Existing &lt;br&gt;Schedules" style="edgeStyle=none;html=1;entryX=1;entryY=0.5;entryDx=0;entryDy=0;" edge="1" parent="1" source="45" target="33">
                    <mxGeometry relative="1" as="geometry">
                        <Array as="points"/>
                    </mxGeometry>
                </mxCell>
                <mxCell id="102" value="Training&lt;br&gt;Instructions" style="edgeStyle=none;html=1;entryX=1;entryY=0.25;entryDx=0;entryDy=0;" edge="1" parent="1" source="45" target="25">
                    <mxGeometry x="-0.1803" relative="1" as="geometry">
                        <Array as="points">
                            <mxPoint x="680" y="53"/>
                        </Array>
                        <mxPoint as="offset"/>
                    </mxGeometry>
                </mxCell>
                <mxCell id="107" value="1.0" style="swimlane;whiteSpace=wrap;html=1;movable=1;resizable=1;rotatable=1;deletable=1;editable=1;connectable=1;" vertex="1" parent="1">
                    <mxGeometry x="118.25" y="650" width="153" height="130" as="geometry"/>
                </mxCell>
                <mxCell id="108" value="Shop Management &lt;br&gt;System" style="text;html=1;align=center;verticalAlign=middle;resizable=1;points=[];autosize=1;strokeColor=none;fillColor=none;movable=1;rotatable=1;deletable=1;editable=1;connectable=1;" vertex="1" parent="107">
                    <mxGeometry x="13" y="55" width="120" height="40" as="geometry"/>
                </mxCell>
                <mxCell id="133" value="System&amp;nbsp;&lt;br&gt;Reports" style="edgeStyle=none;html=1;entryX=0.75;entryY=1;entryDx=0;entryDy=0;" edge="1" parent="1" source="110" target="39">
                    <mxGeometry relative="1" as="geometry"/>
                </mxCell>
                <mxCell id="110" value="1.0" style="swimlane;whiteSpace=wrap;html=1;movable=1;resizable=1;rotatable=1;deletable=1;editable=1;connectable=1;" vertex="1" parent="1">
                    <mxGeometry x="627" y="610" width="153" height="130" as="geometry"/>
                </mxCell>
                <mxCell id="111" value="System &lt;br&gt;Supervising" style="text;html=1;align=center;verticalAlign=middle;resizable=1;points=[];autosize=1;strokeColor=none;fillColor=none;movable=1;rotatable=1;deletable=1;editable=1;connectable=1;" vertex="1" parent="110">
                    <mxGeometry x="28" y="55" width="90" height="40" as="geometry"/>
                </mxCell>
                <mxCell id="115" style="edgeStyle=none;html=1;entryX=0;entryY=0.25;entryDx=0;entryDy=0;exitX=0;exitY=0.5;exitDx=0;exitDy=0;" edge="1" parent="1" source="35" target="29">
                    <mxGeometry relative="1" as="geometry">
                        <mxPoint x="59.999999999999886" y="399.9999999999999" as="sourcePoint"/>
                        <mxPoint x="108.5" y="935" as="targetPoint"/>
                        <Array as="points">
                            <mxPoint x="40" y="210"/>
                            <mxPoint x="40" y="570"/>
                            <mxPoint x="40" y="863"/>
                        </Array>
                    </mxGeometry>
                </mxCell>
                <mxCell id="116" value="Request&lt;br&gt;Pet Information" style="edgeStyle=none;html=1;entryX=0;entryY=0.25;entryDx=0;entryDy=0;exitX=0;exitY=0.75;exitDx=0;exitDy=0;" edge="1" parent="1" source="35" target="23">
                    <mxGeometry x="0.6729" y="-5" relative="1" as="geometry">
                        <mxPoint x="89.99999999999989" y="220" as="sourcePoint"/>
                        <mxPoint x="138.5" y="932.5" as="targetPoint"/>
                        <Array as="points">
                            <mxPoint x="40" y="230"/>
                            <mxPoint x="40" y="800"/>
                        </Array>
                        <mxPoint x="-1" as="offset"/>
                    </mxGeometry>
                </mxCell>
                <mxCell id="118" style="edgeStyle=none;html=1;entryX=1;entryY=0.5;entryDx=0;entryDy=0;" edge="1" parent="1" source="53" target="19">
                    <mxGeometry relative="1" as="geometry">
                        <Array as="points">
                            <mxPoint x="650" y="410"/>
                        </Array>
                    </mxGeometry>
                </mxCell>
                <mxCell id="122" style="edgeStyle=none;html=1;entryX=0.75;entryY=1;entryDx=0;entryDy=0;" edge="1" parent="1" source="71" target="19">
                    <mxGeometry relative="1" as="geometry">
                        <mxPoint x="500" y="500" as="targetPoint"/>
                        <Array as="points">
                            <mxPoint x="460" y="550"/>
                        </Array>
                    </mxGeometry>
                </mxCell>
                <mxCell id="123" value="Login&amp;nbsp;&lt;br&gt;Verification" style="edgeStyle=none;html=1;entryX=0.75;entryY=1;entryDx=0;entryDy=0;" edge="1" parent="1" source="59" target="19">
                    <mxGeometry x="0.8483" y="3" relative="1" as="geometry">
                        <mxPoint x="400" y="440.0000000000001" as="targetPoint"/>
                        <Array as="points">
                            <mxPoint x="510" y="750"/>
                            <mxPoint x="460" y="550"/>
                        </Array>
                        <mxPoint as="offset"/>
                    </mxGeometry>
                </mxCell>
                <mxCell id="129" value="Information" style="edgeStyle=none;html=1;entryX=1;entryY=1;entryDx=0;entryDy=0;" edge="1" parent="1" source="71" target="27">
                    <mxGeometry x="0.5975" y="19" relative="1" as="geometry">
                        <mxPoint as="offset"/>
                    </mxGeometry>
                </mxCell>
                <mxCell id="130" value="Product&lt;br&gt;Details" style="edgeStyle=none;html=1;entryX=1;entryY=0.25;entryDx=0;entryDy=0;" edge="1" parent="1" source="59" target="107">
                    <mxGeometry relative="1" as="geometry">
                        <Array as="points"/>
                    </mxGeometry>
                </mxCell>
                <mxCell id="134" value="Information" style="edgeStyle=none;html=1;entryX=1;entryY=0.75;entryDx=0;entryDy=0;" edge="1" parent="1" source="77" target="23">
                    <mxGeometry relative="1" as="geometry">
                        <mxPoint x="591.5" y="970.0000000000002" as="targetPoint"/>
                    </mxGeometry>
                </mxCell>
                <mxCell id="135" value="Post Data" style="edgeStyle=none;html=1;entryX=1;entryY=0.75;entryDx=0;entryDy=0;exitX=0.011;exitY=1.026;exitDx=0;exitDy=0;exitPerimeter=0;" edge="1" parent="1" source="83" target="29">
                    <mxGeometry relative="1" as="geometry">
                        <Array as="points"/>
                    </mxGeometry>
                </mxCell>
            </root>
        </mxGraphModel>
    </diagram>
</mxfile>